<?xml version="1.0" standalone="no"?>
<svg xmlns="http://www.w3.org/2000/svg" viewBox="0 0 189.881 34.416" width="189.881" height="34.416"><g fill="#000000" color="#000000" transform="translate(0, 0) scale(0.439394)"><svg width="66.0" height="66.0" x="0.0" y="0.0" viewBox="0 0 66 66"><g><path d="M60.1,1c-2.6,0-4.7,2.1-4.7,4.7c0,1,0.3,1.9,0.9,2.7L43.4,21.3c-4-2.9-8.9-4.6-14.2-4.6C15.9,16.6,5,27.5,5,40.8   c0,5.3,1.7,10.3,4.7,14.3l-8.2,8.2c-0.4,0.4-0.4,1,0,1.4c0.4,0.4,1,0.4,1.4,0l8-8.1c4.4,5.1,11,8.4,18.3,8.4   C51.4,65,62,37.2,45,22.5L57.8,9.7c0.7,0.4,1.5,0.7,2.3,0.7c2.6,0,4.7-2.1,4.7-4.7C64.8,3.1,62.7,1,60.1,1z M8.5,48.7   c0.2,0,0.4,0,0.7,0c15.5,0,29.2-11.1,32.5-26.2c1.7,1.1,3.2,2.5,4.5,4.1C45,34.8,40.7,42.1,34,47.1c-6.7,5-14.9,7.2-23.2,6   C9.8,51.7,9.1,50.2,8.5,48.7z M15.8,23.2c1.5-1.1,3.1-2.1,4.8-2.8c-1.3,3.7-1.9,7.5-1.9,11.5c0,4.3,0.8,8.5,2.2,12.4   c-1.7,0.7-3.5,1.3-5.4,1.7C14.7,43.5,12.4,34.9,15.8,23.2z M36.5,30.4c-0.6-2-1.2-5.6-0.5-10.7c1.3,0.4,2.6,1,3.8,1.6   C39.2,24.5,38.1,27.6,36.5,30.4z M35.2,32.6c-1.4,2.1-3.1,4-4.9,5.7c-0.9-3.1-1.4-6.4-1.4-9.8c0-3.4,0.5-6.7,1.5-9.9   c1.3,0.1,2.5,0.2,3.7,0.5C33,26.5,34.5,31,35.2,32.6z M28.6,39.7c-1.8,1.5-3.8,2.7-5.9,3.8c-1.4-3.7-2.1-7.6-2.1-11.6   c0-4.3,0.8-8.4,2.3-12.4c1.7-0.5,3.5-0.8,5.3-0.9c-0.9,3.2-1.4,6.5-1.4,9.9C26.9,32.4,27.5,36.1,28.6,39.7z M13.1,25.6   c-2.3,10.4-0.5,18,0.4,20.8c-1.9,0.3-3.8,0.4-5.7,0.3C7.3,44.8,7,42.8,7,40.8C7,34.9,9.3,29.6,13.1,25.6z M12.4,55.3   c0.9,0.1,1.9,0.1,2.8,0.1c7.2,0,14.1-2.3,19.9-6.7c6.6-5,11-12,12.6-20c1.4,2.1,2.4,4.4,3,7C47,51,32.4,61,16.7,59.1   C15.1,58.1,13.7,56.8,12.4,55.3z M39.2,55.6c1.1,1,2.3,1.9,3.6,2.7c-1.5,1.2-3.2,2.2-5,2.9c-1.4-0.8-2.7-1.7-4-2.7   C35.7,57.8,37.5,56.8,39.2,55.6z M20.9,61.4c3.7,0,7.4-0.7,10.8-1.9c1.2,1,2.4,1.9,3.7,2.7c-1.9,0.6-4,0.9-6.1,0.9   C26.3,63,23.5,62.4,20.9,61.4z M44.4,57c-1.2-0.8-2.4-1.6-3.5-2.6c2-1.6,3.8-3.4,5.5-5.3c0.8,0.5,1.9,1,3,1   C48.2,52.7,46.5,55,44.4,57z M50,48.6l0-0.5c-0.9,0.1-1.7-0.3-2.4-0.7c1.5-2.2,2.8-4.5,3.8-7.1c0,0.1,0,0.3,0,0.4   C51.4,43.6,50.9,46.2,50,48.6z M60.1,8.4c-1.3,0-2.7-1.2-2.7-2.7c0-1.5,1.2-2.7,2.7-2.7c1.5,0,2.7,1.2,2.7,2.7   C62.8,7.2,61.6,8.4,60.1,8.4z"></path></g></svg></g><line x1="41" y1="1" x2="41" y2="28" stroke="#000000" stroke-linecap="round"></line><path fill="#000000" fill-rule="nonzero" d="M0 21.70L0 21.70Q0.09 21.63 0.29 21.47Q0.49 21.30 0.76 20.86Q1.03 20.41 1.36 19.57Q1.69 18.73 2.04 17.27L2.04 17.27Q2.23 16.50 2.53 15.30Q2.84 14.11 3.20 12.75Q3.56 11.39 3.94 9.95Q4.31 8.51 4.66 7.21Q5.02 5.91 5.30 4.85Q5.58 3.80 5.74 3.21L5.74 3.21Q5.30 3.49 4.88 3.84L4.88 3.84Q4.50 4.15 4.08 4.54Q3.66 4.92 3.26 5.34L3.26 5.34Q2.95 5.09 2.79 4.78L2.79 4.78Q2.70 4.64 2.63 4.48L2.63 4.48Q2.48 4.13 2.48 3.75Q2.48 3.38 3.07 2.98L3.07 2.98Q3.38 2.77 4.00 2.37Q4.62 1.97 5.53 1.58Q6.45 1.20 7.66 0.91Q8.88 0.63 10.36 0.63L10.36 0.63Q11.84 0.63 12.74 1.22Q13.64 1.80 14.12 2.65Q14.60 3.49 14.74 4.43Q14.88 5.37 14.81 6.07L14.81 6.07Q14.67 7.38 13.97 8.81Q13.27 10.24 12.02 11.45Q10.78 12.66 9 13.50Q7.22 14.34 4.92 14.46L4.92 14.46Q4.73 15.35 4.55 16.29Q4.36 17.23 4.15 18.13Q3.94 19.03 3.71 19.82Q3.49 20.60 3.26 21.16L3.26 21.16Q3.02 21.77 2.65 22.14Q2.27 22.50 1.45 22.50L1.45 22.50Q1.03 22.50 0.67 22.29Q0.30 22.08 0 21.70ZM5.55 11.02L5.55 11.02Q5.48 11.39 5.38 11.99Q5.27 12.59 5.13 13.34L5.13 13.34Q5.77 13.24 6.54 13.00Q7.31 12.75 8.09 12.33Q8.86 11.91 9.60 11.31Q10.34 10.71 10.95 9.93Q11.55 9.14 11.96 8.14Q12.38 7.15 12.49 5.93L12.49 5.93Q12.61 4.76 12.36 3.97Q12.12 3.19 11.65 2.71Q11.18 2.23 10.57 2.03Q9.96 1.83 9.35 1.83L9.35 1.83Q8.77 1.83 8.20 1.99Q7.64 2.16 7.08 2.41L7.08 2.41Q7.15 2.44 7.24 2.53L7.24 2.53Q7.38 2.67 7.45 2.93L7.45 2.93Q6.89 5.20 6.53 6.73Q6.16 8.25 5.95 9.21L5.95 9.21Q5.70 10.34 5.55 11.02ZM14.11 17.98L14.11 17.98Q15.14 13.64 15.76 11.02Q16.38 8.39 16.71 7.01L16.71 7.01Q17.09 5.37 17.23 4.73L17.23 4.73Q17.30 4.29 17.34 3.87L17.34 3.87Q17.39 3.49 17.39 3.09Q17.39 2.70 17.32 2.37L17.32 2.37Q17.51 2.25 17.73 2.18Q17.95 2.11 18.16 2.06L18.16 2.06Q18.42 1.99 18.68 1.95L18.68 1.95Q18.94 1.90 19.15 1.90L19.15 1.90Q19.34 1.90 19.50 1.93Q19.66 1.97 19.71 2.09L19.71 2.09Q19.85 2.20 19.84 2.55Q19.83 2.91 19.78 3.28L19.78 3.28Q19.69 3.73 19.57 4.24L19.57 4.24Q19.29 5.25 18.80 7.15L18.80 7.15Q18.38 8.77 17.66 11.55Q16.95 14.34 15.87 18.59L15.87 18.59Q15.75 18.70 15.59 18.75Q15.42 18.80 15.28 18.80L15.28 18.80Q15.12 18.80 14.93 18.77L14.93 18.77Q14.77 18.73 14.60 18.63L14.60 18.63Q14.46 18.54 14.32 18.39Q14.18 18.23 14.11 17.98ZM31.73 13.69L31.73 13.69Q31.41 14.16 30.89 14.85Q30.38 15.54 29.82 16.23Q29.27 16.92 28.75 17.50Q28.22 18.07 27.87 18.30L27.87 18.30Q27.63 18.45 27.33 18.54Q27.02 18.63 26.71 18.66Q26.39 18.68 26.11 18.62Q25.83 18.56 25.62 18.42L25.62 18.42Q25.41 18.26 25.27 17.95L25.27 17.95Q25.15 17.70 25.04 17.27Q24.94 16.85 24.96 16.22L24.96 16.22Q24.40 17.16 23.72 17.66Q23.04 18.16 22.43 18.40L22.43 18.40Q21.73 18.66 21.02 18.70L21.02 18.70Q20.70 18.70 20.32 18.48Q19.95 18.26 19.69 17.78Q19.43 17.30 19.36 16.54Q19.29 15.77 19.55 14.72L19.55 14.72Q19.88 13.29 20.59 12.12Q21.30 10.95 22.15 10.11Q22.99 9.28 23.81 8.86Q24.63 8.44 25.17 8.48L25.17 8.48Q25.80 8.60 26.20 8.86L26.20 8.86Q26.53 9.09 26.64 9.55Q26.74 10.01 26.25 10.76L26.25 10.76Q26.58 10.69 26.80 10.66Q27.02 10.64 27.14 10.64L27.14 10.64Q27.28 10.64 27.33 10.66L27.33 10.66Q27.35 10.71 27.35 10.86Q27.35 11.02 27.28 11.41Q27.21 11.81 27.07 12.49Q26.93 13.17 26.70 14.25L26.70 14.25Q26.65 14.46 26.61 14.64Q26.58 14.81 26.54 14.99Q26.51 15.16 26.46 15.40Q26.41 15.63 26.34 15.98L26.34 15.98Q26.32 16.20 26.33 16.44Q26.34 16.69 26.41 16.90Q26.48 17.11 26.64 17.24Q26.79 17.37 27.07 17.37L27.07 17.37Q27.30 17.37 27.68 17.07Q28.05 16.78 28.48 16.32Q28.90 15.87 29.36 15.32Q29.81 14.77 30.21 14.25Q30.61 13.73 30.93 13.34Q31.24 12.94 31.38 12.75L31.38 12.75Q31.57 12.54 31.76 12.50Q31.95 12.47 32.04 12.61Q32.13 12.75 32.07 13.03Q32.02 13.31 31.73 13.69ZM24.87 14.72L24.87 14.72Q24.98 14.25 25.15 13.62Q25.31 12.98 25.43 12.40Q25.55 11.81 25.61 11.43Q25.66 11.04 25.57 11.06L25.57 11.06Q25.45 11.09 25.31 11.13L25.31 11.13Q25.20 11.18 25.01 11.20Q24.82 11.23 24.63 11.27L24.63 11.27Q24.82 10.90 24.86 10.65Q24.89 10.41 24.87 10.27L24.87 10.27Q24.84 10.10 24.77 10.01L24.77 10.01Q24.52 9.80 23.87 10.35Q23.23 10.90 22.38 12.38L22.38 12.38Q22.03 12.98 21.82 13.68Q21.61 14.37 21.53 14.98Q21.45 15.59 21.49 16.04Q21.54 16.50 21.68 16.64L21.68 16.64Q21.94 16.90 22.27 16.89Q22.59 16.88 22.93 16.70Q23.27 16.52 23.61 16.24Q23.95 15.96 24.22 15.66Q24.49 15.35 24.67 15.09Q24.84 14.84 24.87 14.72ZM36.33 9.73L36.33 9.73Q36.63 9.49 36.93 9.36Q37.22 9.23 37.45 9.19L37.45 9.19Q37.71 9.12 37.97 9.14L37.97 9.14Q38.60 9.19 38.75 9.54Q38.91 9.89 38.79 10.66L38.79 10.66Q38.72 11.06 38.51 11.67Q38.30 12.28 38.02 13.16Q37.73 14.04 37.42 15.16Q37.10 16.29 36.82 17.70L36.82 17.70Q36.54 18.84 36.21 20.34L36.21 20.34Q35.93 21.66 35.54 23.51Q35.16 25.36 34.71 27.75L34.71 27.75Q34.59 28.34 34.21 28.43Q33.82 28.52 33.40 28.34L33.40 28.34Q33.23 28.24 33.09 28.13L33.09 28.13Q32.98 28.01 32.84 27.86Q32.70 27.70 32.60 27.45L32.60 27.45Q33.14 25.48 33.55 23.86Q33.96 22.24 34.29 21.05L34.29 21.05Q34.64 19.66 34.95 18.56L34.95 18.56Q35.06 18.07 35.17 17.59Q35.27 17.11 35.39 16.64L35.39 16.64Q35.09 17.13 34.73 17.58Q34.38 18.02 33.96 18.35Q33.54 18.68 33.06 18.86Q32.58 19.03 32.06 18.96L32.06 18.96Q30.80 18.80 30.27 18.02Q29.74 17.25 29.81 16.01L29.81 16.01Q29.84 15.52 29.95 14.93Q30.07 14.34 30.21 13.80Q30.35 13.27 30.48 12.83Q30.61 12.40 30.68 12.21L30.68 12.21Q30.96 11.32 31.09 10.69Q31.22 10.05 30.89 9.63L30.89 9.63Q31.22 9.42 31.51 9.34Q31.80 9.26 32.04 9.21L32.04 9.21Q32.30 9.19 32.55 9.21L32.55 9.21Q33.19 9.30 33.29 9.68Q33.40 10.05 33.21 10.80L33.21 10.80Q33.12 11.20 32.91 11.82Q32.70 12.45 32.46 13.10Q32.23 13.76 32.04 14.31Q31.85 14.86 31.83 15.09L31.83 15.09Q31.62 16.15 31.80 16.72Q31.99 17.30 32.63 17.30L32.63 17.30Q32.93 17.30 33.30 17.03Q33.68 16.76 34.07 16.31Q34.45 15.87 34.83 15.29Q35.20 14.72 35.52 14.13Q35.84 13.55 36.08 12.98Q36.33 12.42 36.45 11.98L36.45 11.98Q36.61 11.11 36.66 10.62Q36.70 10.13 36.33 9.73ZM40.38 15.91L40.38 15.91Q40.13 15.66 40.02 15.41Q39.91 15.16 39.87 14.93L39.87 14.93Q39.82 14.67 39.87 14.41L39.87 14.41Q39.96 14.09 40.15 13.80L40.15 13.80Q40.31 13.55 40.59 13.28Q40.88 13.01 41.34 12.77L41.34 12.77Q41.65 12.02 41.89 11.19Q42.14 10.36 42.33 9.68L42.33 9.68Q42.54 8.88 42.70 8.09L42.70 8.09Q43.29 6.09 43.31 4.84Q43.34 3.59 43.27 3.19L43.27 3.19Q43.24 3.02 43.22 2.86L43.22 2.86Q43.17 2.72 43.14 2.54Q43.10 2.37 43.05 2.20L43.05 2.20Q43.31 2.06 43.51 1.97Q43.71 1.88 43.85 1.83L43.85 1.83Q44.02 1.76 44.16 1.73L44.16 1.73Q44.70 1.62 45.18 1.61Q45.66 1.59 45.70 1.78L45.70 1.78Q45.73 1.90 45.76 2.20Q45.80 2.51 45.80 2.95Q45.80 3.40 45.73 3.95Q45.66 4.50 45.47 5.11L45.47 5.11Q45.30 5.65 45.02 6.61L45.02 6.61Q44.77 7.43 44.34 8.80Q43.92 10.17 43.24 12.30L43.24 12.30Q43.95 12.07 44.79 11.86Q45.63 11.65 46.51 11.51Q47.39 11.37 48.27 11.30Q49.15 11.23 49.90 11.27L49.90 11.27Q50.04 11.27 50.10 11.40Q50.16 11.53 50.10 11.67Q50.04 11.81 49.84 11.94Q49.64 12.07 49.27 12.09L49.27 12.09Q48.80 12.14 48.23 12.20Q47.67 12.26 47.07 12.36Q46.48 12.47 45.89 12.62Q45.30 12.77 44.79 12.98L44.79 12.98Q44.39 13.13 43.99 13.27L43.99 13.27Q43.66 13.38 43.30 13.54Q42.94 13.69 42.70 13.80L42.70 13.80L42.16 15.52Q43.52 16.48 44.26 17.48Q45 18.49 45.33 19.34L45.33 19.34Q45.73 20.32 45.77 21.26L45.77 21.26Q45.77 22.29 45.47 23.33Q45.16 24.38 44.66 25.32Q44.16 26.27 43.49 27.09Q42.82 27.91 42.08 28.50Q41.34 29.09 40.58 29.39Q39.82 29.70 39.14 29.63L39.14 29.63Q38.65 29.58 38.32 29.31Q37.99 29.04 37.83 28.63Q37.66 28.22 37.64 27.71Q37.62 27.21 37.73 26.72L37.73 26.72Q37.83 26.23 38.13 24.89L38.13 24.89Q38.39 23.77 38.93 21.62Q39.47 19.48 40.38 15.91ZM41.77 17.02L41.77 17.02Q41.44 18.19 41.19 19.17Q40.95 20.16 40.78 20.91L40.78 20.91Q40.57 21.77 40.45 22.48L40.45 22.48Q40.24 23.37 40.02 24.23Q39.80 25.10 39.67 25.79Q39.54 26.48 39.56 26.91Q39.59 27.33 39.87 27.33L39.87 27.33Q40.55 27.38 41.29 26.80Q42.02 26.23 42.63 25.35Q43.24 24.47 43.64 23.45Q44.04 22.43 44.04 21.56L44.04 21.56Q44.04 20.60 43.73 19.66L43.73 19.66Q43.52 19.17 43.24 18.70L43.24 18.70Q42.98 18.30 42.62 17.85Q42.26 17.39 41.77 17.02ZM50.63 18.73L50.63 18.73Q49.73 18.73 49.17 18.45Q48.61 18.16 48.29 17.75Q47.98 17.34 47.85 16.86Q47.72 16.38 47.72 15.98L47.72 15.98Q47.72 15.28 47.84 14.50Q47.95 13.71 48.12 13.04Q48.28 12.38 48.41 11.91Q48.54 11.44 48.59 11.32L48.59 11.32Q48.80 10.64 49.14 10.14Q49.48 9.63 50.09 9.45L50.09 9.45Q50.32 9.40 50.58 9.35L50.58 9.35Q50.79 9.33 51.01 9.33Q51.23 9.33 51.42 9.40L51.42 9.40Q50.79 11.02 50.43 12.09Q50.06 13.17 49.88 13.85L49.88 13.85Q49.66 14.63 49.62 15.09L49.62 15.09Q49.50 16.15 49.80 16.69Q50.11 17.23 51.05 17.23L51.05 17.23Q51.66 17.23 52.22 16.77Q52.78 16.31 53.25 15.59L53.25 15.59Q53.18 15.21 53.18 14.81L53.18 14.81Q53.18 14.06 53.31 13.35Q53.44 12.63 53.61 12.01Q53.79 11.39 53.99 10.90Q54.19 10.41 54.33 10.13L54.33 10.13Q54.59 9.56 54.80 9.43Q55.01 9.30 55.48 9.28L55.48 9.28Q55.66 9.26 55.79 9.27Q55.92 9.28 56.02 9.30L56.02 9.30Q56.30 9.38 56.30 9.59L56.30 9.59Q56.30 9.96 56.25 10.71Q56.20 11.46 55.97 12.26L55.97 12.26Q55.80 12.91 55.65 13.37Q55.50 13.83 55.36 14.14Q55.22 14.46 55.08 14.66Q54.94 14.86 54.82 15.02L54.82 15.02Q54.87 15.73 54.94 16.15Q55.01 16.57 55.11 16.79Q55.22 17.02 55.37 17.10Q55.52 17.18 55.71 17.18L55.71 17.18Q56.04 17.18 56.48 16.86Q56.93 16.55 57.41 16.07Q57.89 15.59 58.37 15.01Q58.85 14.44 59.25 13.92Q59.65 13.41 59.93 13.02Q60.21 12.63 60.28 12.54L60.28 12.54Q60.45 12.33 60.60 12.28Q60.75 12.23 60.84 12.32Q60.94 12.40 60.95 12.57Q60.96 12.75 60.84 12.96L60.84 12.96Q60.38 13.85 59.68 14.85Q58.99 15.84 58.21 16.69Q57.42 17.53 56.63 18.09Q55.83 18.66 55.13 18.66L55.13 18.66Q54.49 18.66 54.13 18.22Q53.77 17.79 53.51 16.97L53.51 16.97Q52.97 17.81 52.24 18.27Q51.52 18.73 50.63 18.73ZM58.62 17.98L58.62 17.98Q59.65 13.64 60.27 11.02Q60.89 8.39 61.22 7.01L61.22 7.01Q61.59 5.37 61.73 4.73L61.73 4.73Q61.80 4.29 61.85 3.87L61.85 3.87Q61.90 3.49 61.90 3.09Q61.90 2.70 61.83 2.37L61.83 2.37Q62.02 2.25 62.24 2.18Q62.46 2.11 62.67 2.06L62.67 2.06Q62.93 1.99 63.19 1.95L63.19 1.95Q63.45 1.90 63.66 1.90L63.66 1.90Q63.84 1.90 64.01 1.93Q64.17 1.97 64.22 2.09L64.22 2.09Q64.36 2.20 64.35 2.55Q64.34 2.91 64.29 3.28L64.29 3.28Q64.20 3.73 64.08 4.24L64.08 4.24Q63.80 5.25 63.30 7.15L63.30 7.15Q62.88 8.77 62.17 11.55Q61.45 14.34 60.38 18.59L60.38 18.59Q60.26 18.70 60.09 18.75Q59.93 18.80 59.79 18.80L59.79 18.80Q59.63 18.80 59.44 18.77L59.44 18.77Q59.27 18.73 59.11 18.63L59.11 18.63Q58.97 18.54 58.83 18.39Q58.69 18.23 58.62 17.98ZM79.55 7.59L79.55 7.59Q79.52 7.52 79.69 7.23Q79.85 6.94 80.05 6.50Q80.25 6.07 80.45 5.52Q80.65 4.97 80.73 4.38Q80.81 3.80 80.72 3.21Q80.63 2.63 80.23 2.09L80.23 2.09Q79.99 1.80 79.54 1.77Q79.08 1.73 78.50 1.91Q77.93 2.09 77.31 2.45Q76.69 2.81 76.17 3.29Q75.66 3.77 75.29 4.36Q74.93 4.95 74.88 5.55L74.88 5.55Q74.84 6.05 74.92 6.47Q75 6.89 75.14 7.24Q75.28 7.59 75.45 7.90Q75.61 8.20 75.75 8.44L75.75 8.44Q75.94 8.77 76.34 9.16Q76.73 9.56 77.20 10.07Q77.67 10.57 78.14 11.20Q78.61 11.84 78.96 12.63Q79.31 13.43 79.45 14.41Q79.59 15.40 79.43 16.59L79.43 16.59Q79.17 18.33 78.61 19.49Q78.05 20.65 77.38 21.35Q76.71 22.05 76.03 22.37Q75.35 22.69 74.91 22.78L74.91 22.78Q74.55 22.85 74.07 22.91Q73.59 22.97 73.07 22.89Q72.54 22.80 72 22.56Q71.46 22.31 71.04 21.80L71.04 21.80Q70.55 21.21 70.27 20.53L70.27 20.53Q70.01 19.95 69.88 19.18Q69.75 18.42 70.01 17.60L70.01 17.60Q70.20 17.39 70.41 17.23Q70.62 17.06 70.83 16.95L70.83 16.95Q71.06 16.80 71.32 16.69L71.32 16.69Q71.63 16.59 71.93 16.52L71.93 16.52Q72.19 16.48 72.48 16.46Q72.77 16.45 73.03 16.55L73.03 16.55Q72.68 16.95 72.54 17.30L72.54 17.30Q72.45 17.48 72.40 17.63L72.40 17.63Q72.30 18.07 72.34 18.69Q72.38 19.31 72.60 19.89Q72.82 20.46 73.24 20.87Q73.66 21.28 74.37 21.30L74.37 21.30Q76.08 21.35 77.27 18.63L77.27 18.63Q77.67 17.79 77.68 16.92Q77.70 16.05 77.47 15.26Q77.25 14.46 76.89 13.77Q76.52 13.08 76.15 12.59L76.15 12.59Q75.77 12.09 75.25 11.52Q74.72 10.95 74.20 10.27Q73.69 9.59 73.28 8.79Q72.87 7.99 72.73 7.05L72.73 7.05Q72.54 5.74 72.97 4.65Q73.41 3.56 74.14 2.74Q74.88 1.92 75.76 1.41Q76.64 0.89 77.32 0.75L77.32 0.75Q81.09 0 82.27 2.02L82.27 2.02Q82.76 2.79 82.80 3.66Q82.85 4.52 82.70 5.26Q82.55 6 82.32 6.50Q82.10 7.01 82.03 7.05L82.03 7.05Q81.89 7.20 81.59 7.36Q81.28 7.52 80.60 7.66L80.60 7.66Q80.41 7.71 80.23 7.71L80.23 7.71Q80.06 7.71 79.88 7.69Q79.69 7.66 79.55 7.59ZM90.98 12.42L90.98 12.42Q91.08 12.28 91.23 12.25Q91.38 12.21 91.48 12.28Q91.57 12.35 91.58 12.52Q91.59 12.68 91.45 12.96L91.45 12.96Q90.98 13.85 90.22 14.88Q89.46 15.91 88.62 16.82Q87.77 17.72 86.98 18.30Q86.18 18.89 85.64 18.89L85.64 18.89Q84.87 18.89 84.35 18.59Q83.84 18.28 83.54 17.84Q83.25 17.39 83.13 16.86Q83.02 16.34 83.06 15.89L83.06 15.89Q83.09 15.52 83.23 14.54Q83.37 13.57 83.60 12.29Q83.84 11.02 84.13 9.55Q84.42 8.09 84.75 6.73L84.75 6.73Q84.35 6.77 83.95 6.82Q83.55 6.87 83.23 6.87L83.23 6.87Q82.48 6.87 81.81 6.69Q81.14 6.52 80.81 6.35L80.81 6.35Q80.63 6.26 80.65 6.08Q80.67 5.91 80.79 5.73Q80.91 5.55 81.08 5.43Q81.26 5.30 81.40 5.30L81.40 5.30Q81.84 5.34 82.36 5.38Q82.88 5.41 83.48 5.39L83.48 5.39Q83.93 5.37 84.34 5.32Q84.75 5.27 85.15 5.20L85.15 5.20Q85.45 4.08 85.75 3.25Q86.04 2.41 86.27 2.09L86.27 2.09Q86.34 1.97 86.59 1.89Q86.84 1.80 87.12 1.77Q87.40 1.73 87.66 1.77Q87.91 1.80 88.03 1.95L88.03 1.95Q88.15 2.13 88.13 2.91Q88.10 3.68 87.87 4.88L87.87 4.88Q88.85 4.88 89.61 4.98Q90.38 5.09 90.91 5.21Q91.45 5.34 91.78 5.47Q92.11 5.60 92.27 5.65L92.27 5.65Q92.44 5.70 92.45 5.88Q92.46 6.07 92.38 6.27Q92.30 6.47 92.11 6.61Q91.92 6.75 91.69 6.70L91.69 6.70Q91.45 6.68 91.16 6.61Q90.87 6.54 90.46 6.49Q90.05 6.45 89.48 6.40Q88.92 6.35 88.17 6.35L88.17 6.35Q88.03 6.35 87.86 6.36Q87.68 6.38 87.49 6.38L87.49 6.38Q87.40 6.75 87.32 7.11Q87.23 7.48 87.09 7.88L87.09 7.88Q86.79 8.81 86.39 9.91L86.39 9.91Q86.04 10.88 85.55 12.12Q85.05 13.36 84.45 14.77L84.45 14.77Q84.30 15.77 84.48 16.30Q84.66 16.83 84.91 17.06L84.91 17.06Q85.22 17.32 85.66 17.34L85.66 17.34Q86.02 17.39 86.52 17.10Q87.02 16.80 87.56 16.31Q88.10 15.82 88.65 15.23Q89.20 14.65 89.67 14.09Q90.14 13.52 90.49 13.07Q90.84 12.61 90.98 12.42ZM94.73 4.55L94.73 4.55Q94.66 4.80 94.46 5.05Q94.27 5.30 94.02 5.45Q93.77 5.60 93.52 5.65Q93.26 5.70 93.09 5.55L93.09 5.55Q92.60 5.18 92.58 4.75Q92.55 4.31 92.79 3.93Q93.02 3.54 93.38 3.27Q93.73 3 93.98 2.95L93.98 2.95Q94.24 2.91 94.42 3.06Q94.59 3.21 94.69 3.46Q94.78 3.70 94.79 4.01Q94.80 4.31 94.73 4.55ZM91.50 9.54L91.50 9.54Q91.62 9.40 91.95 9.30Q92.27 9.21 92.63 9.15Q92.98 9.09 93.27 9.08Q93.56 9.07 93.61 9.09L93.61 9.09Q93.63 9.12 93.49 9.59Q93.35 10.05 93.14 10.69Q92.93 11.32 92.70 11.99Q92.46 12.66 92.34 13.08L92.34 13.08Q92.23 13.50 92.06 14.03Q91.90 14.55 91.77 15.06Q91.64 15.56 91.59 16.01Q91.55 16.45 91.66 16.69L91.66 16.69Q91.78 16.97 91.92 17.07Q92.06 17.18 92.23 17.18L92.23 17.18Q92.70 17.18 93.41 16.66Q94.13 16.15 94.86 15.43Q95.60 14.72 96.23 13.98Q96.87 13.24 97.17 12.80L97.17 12.80Q97.36 12.56 97.56 12.49Q97.76 12.42 97.89 12.52Q98.02 12.61 98.03 12.82Q98.04 13.03 97.88 13.31L97.88 13.31Q97.50 13.97 96.77 14.87Q96.05 15.77 95.23 16.61Q94.41 17.44 93.62 18.02Q92.84 18.61 92.34 18.63L92.34 18.63Q91.95 18.66 91.56 18.50Q91.17 18.35 90.86 18.08Q90.54 17.81 90.33 17.45Q90.12 17.09 90.09 16.69L90.09 16.69Q90.02 16.10 90.09 15.08Q90.16 14.06 90.35 13.00Q90.54 11.93 90.83 10.97Q91.13 10.01 91.50 9.54ZM104.81 12.42L104.81 12.42Q104.91 12.28 105.06 12.25Q105.21 12.21 105.30 12.28Q105.40 12.35 105.41 12.52Q105.42 12.68 105.28 12.96L105.28 12.96Q104.81 13.85 104.05 14.88Q103.29 15.91 102.45 16.82Q101.60 17.72 100.80 18.30Q100.01 18.89 99.47 18.89L99.47 18.89Q98.70 18.89 98.18 18.59Q97.66 18.28 97.37 17.84Q97.08 17.39 96.96 16.86Q96.84 16.34 96.89 15.89L96.89 15.89Q96.91 15.52 97.05 14.54Q97.20 13.57 97.43 12.29Q97.66 11.02 97.96 9.55Q98.25 8.09 98.58 6.73L98.58 6.73Q98.18 6.77 97.78 6.82Q97.38 6.87 97.05 6.87L97.05 6.87Q96.30 6.87 95.64 6.69Q94.97 6.52 94.64 6.35L94.64 6.35Q94.45 6.26 94.48 6.08Q94.50 5.91 94.62 5.73Q94.73 5.55 94.91 5.43Q95.09 5.30 95.23 5.30L95.23 5.30Q95.67 5.34 96.19 5.38Q96.70 5.41 97.31 5.39L97.31 5.39Q97.76 5.37 98.17 5.32Q98.58 5.27 98.98 5.20L98.98 5.20Q99.28 4.08 99.57 3.25Q99.87 2.41 100.10 2.09L100.10 2.09Q100.17 1.97 100.42 1.89Q100.66 1.80 100.95 1.77Q101.23 1.73 101.48 1.77Q101.74 1.80 101.86 1.95L101.86 1.95Q101.98 2.13 101.95 2.91Q101.93 3.68 101.70 4.88L101.70 4.88Q102.68 4.88 103.44 4.98Q104.20 5.09 104.74 5.21Q105.28 5.34 105.61 5.47Q105.94 5.60 106.10 5.65L106.10 5.65Q106.27 5.70 106.28 5.88Q106.29 6.07 106.21 6.27Q106.13 6.47 105.94 6.61Q105.75 6.75 105.52 6.70L105.52 6.70Q105.28 6.68 104.99 6.61Q104.70 6.54 104.29 6.49Q103.88 6.45 103.31 6.40Q102.75 6.35 102 6.35L102 6.35Q101.86 6.35 101.68 6.36Q101.51 6.38 101.32 6.38L101.32 6.38Q101.23 6.75 101.14 7.11Q101.06 7.48 100.92 7.88L100.92 7.88Q100.62 8.81 100.22 9.91L100.22 9.91Q99.87 10.88 99.38 12.12Q98.88 13.36 98.27 14.77L98.27 14.77Q98.13 15.77 98.31 16.30Q98.48 16.83 98.74 17.06L98.74 17.06Q99.05 17.32 99.49 17.34L99.49 17.34Q99.84 17.39 100.35 17.10Q100.85 16.80 101.39 16.31Q101.93 15.82 102.48 15.23Q103.03 14.65 103.50 14.09Q103.97 13.52 104.32 13.07Q104.67 12.61 104.81 12.42ZM107.39 17.55L107.39 17.55Q108.12 17.55 109.00 16.98Q109.88 16.41 110.71 15.63Q111.54 14.86 112.23 14.05Q112.92 13.24 113.27 12.75L113.27 12.75Q113.48 12.45 113.67 12.39Q113.86 12.33 113.95 12.45Q114.05 12.56 114.02 12.81Q114 13.05 113.81 13.36L113.81 13.36Q113.65 13.64 113.26 14.17Q112.88 14.70 112.35 15.32Q111.82 15.94 111.15 16.58Q110.48 17.23 109.76 17.75Q109.03 18.28 108.26 18.62Q107.48 18.96 106.73 18.96L106.73 18.96Q105.70 18.96 105.01 18.57Q104.32 18.19 103.91 17.58Q103.50 16.97 103.34 16.23Q103.17 15.49 103.17 14.77L103.17 14.77Q103.17 14.04 103.50 12.96Q103.83 11.88 104.47 10.89Q105.12 9.89 106.10 9.18Q107.09 8.46 108.42 8.46L108.42 8.46Q109.17 8.46 109.70 8.98Q110.23 9.49 110.20 10.38L110.20 10.38Q110.20 10.80 110.06 11.21Q109.92 11.63 109.69 11.94Q109.45 12.26 109.14 12.45Q108.82 12.63 108.45 12.63L108.45 12.63Q108.14 12.63 107.99 12.41Q107.84 12.19 107.80 11.89Q107.77 11.60 107.80 11.32Q107.84 11.04 107.88 10.95L107.88 10.95Q108 10.78 108.14 10.71Q108.28 10.64 108.47 10.55L108.47 10.55Q108.61 10.48 108.69 10.34Q108.77 10.20 108.77 10.03Q108.77 9.87 108.68 9.75Q108.59 9.63 108.38 9.63L108.38 9.63Q108.16 9.63 107.61 9.97Q107.06 10.31 106.49 10.98Q105.91 11.65 105.47 12.66Q105.02 13.66 105 15L105 15Q104.98 15.77 105.21 16.27Q105.45 16.76 105.80 17.04Q106.15 17.32 106.57 17.44Q106.99 17.55 107.39 17.55ZM124.22 13.20L124.22 13.20Q124.38 13.01 124.56 13.00Q124.73 12.98 124.84 13.09Q124.95 13.20 124.93 13.41Q124.92 13.62 124.73 13.88L124.73 13.88Q124.29 14.48 123.70 15.13Q123.12 15.77 122.45 16.38Q121.78 16.99 121.10 17.53Q120.42 18.07 119.79 18.42L119.79 18.42Q119.09 18.82 118.61 18.82Q118.13 18.82 117.66 18.21L117.66 18.21Q117.23 17.67 117.25 17.05Q117.26 16.43 117.52 15.49L117.52 15.49Q117.68 14.91 117.97 14.10Q118.27 13.29 118.44 12.54Q118.62 11.79 118.55 11.26Q118.48 10.73 117.94 10.73L117.94 10.73Q117.56 10.73 117.13 10.99Q116.70 11.25 116.26 11.66Q115.83 12.07 115.43 12.59Q115.03 13.10 114.73 13.59L114.73 13.59Q114.54 14.51 114.35 15.40L114.35 15.40Q114.19 16.15 114.01 17.03Q113.84 17.91 113.67 18.59L113.67 18.59Q113.53 18.70 113.37 18.75Q113.20 18.80 113.06 18.80L113.06 18.80Q112.90 18.80 112.73 18.77L112.73 18.77Q112.55 18.73 112.38 18.63L112.38 18.63Q112.24 18.54 112.10 18.39Q111.96 18.23 111.89 17.98L111.89 17.98Q112.95 13.64 113.55 11.02Q114.16 8.39 114.49 7.01L114.49 7.01Q114.87 5.37 115.01 4.73L115.01 4.73Q115.08 4.29 115.13 3.87L115.13 3.87Q115.17 3.49 115.17 3.09Q115.17 2.70 115.10 2.37L115.10 2.37Q115.29 2.25 115.51 2.18Q115.73 2.11 115.95 2.06L115.95 2.06Q116.20 1.99 116.46 1.95L116.46 1.95Q116.72 1.90 116.93 1.90L116.93 1.90Q117.12 1.90 117.28 1.93Q117.45 1.97 117.49 2.09L117.49 2.09Q117.63 2.20 117.62 2.55Q117.61 2.91 117.56 3.28L117.56 3.28Q117.47 3.73 117.35 4.24L117.35 4.24Q116.86 6.14 116.25 7.93Q115.64 9.73 115.13 11.77L115.13 11.77Q115.43 11.30 115.85 10.80Q116.27 10.31 116.78 9.90Q117.28 9.49 117.84 9.22Q118.41 8.95 119.04 8.95L119.04 8.95Q119.37 8.95 119.66 9.06Q119.95 9.16 120.18 9.41Q120.40 9.66 120.52 10.07Q120.63 10.48 120.61 11.09L120.61 11.09Q120.61 11.46 120.53 11.86Q120.45 12.26 120.30 12.74Q120.16 13.22 119.94 13.80Q119.72 14.39 119.41 15.16L119.41 15.16Q119.20 15.70 119.09 16.08Q118.97 16.45 119.13 16.73L119.13 16.73Q119.34 17.11 119.96 16.91Q120.59 16.71 121.83 15.70L121.83 15.70Q122.11 15.47 122.46 15.12Q122.81 14.77 123.14 14.40Q123.47 14.04 123.75 13.71Q124.03 13.38 124.22 13.20ZM133.92 13.48L133.92 13.48Q133.22 14.51 132.33 15.48Q131.44 16.45 130.44 17.21Q129.45 17.98 128.40 18.45Q127.36 18.91 126.38 18.91L126.38 18.91Q125.86 18.91 125.26 18.67Q124.66 18.42 124.17 17.91Q123.68 17.39 123.39 16.57Q123.09 15.75 123.21 14.58L123.21 14.58Q123.30 13.62 123.81 12.55Q124.31 11.48 125.05 10.59Q125.79 9.70 126.71 9.12Q127.64 8.53 128.58 8.53L128.58 8.53Q129.47 8.53 129.87 8.98Q130.27 9.42 130.22 10.08L130.22 10.08Q130.15 10.80 129.81 11.41Q129.47 12.02 129 12.52Q128.53 13.01 128.00 13.41Q127.48 13.80 127.01 14.13L127.01 14.13Q126.49 14.48 126.02 14.80Q125.55 15.12 125.20 15.38L125.20 15.38Q125.23 15.96 125.41 16.36Q125.60 16.76 125.88 17.00Q126.16 17.25 126.53 17.36Q126.89 17.46 127.27 17.46L127.27 17.46Q128.06 17.46 128.93 16.96Q129.80 16.45 130.63 15.74Q131.46 15.02 132.18 14.25Q132.89 13.48 133.36 12.91L133.36 12.91Q133.52 12.73 133.70 12.69Q133.88 12.66 133.98 12.74Q134.09 12.82 134.09 13.02Q134.09 13.22 133.92 13.48ZM127.92 9.87L127.92 9.87Q127.64 9.87 127.25 10.15Q126.87 10.43 126.49 10.96Q126.12 11.48 125.79 12.25Q125.46 13.01 125.30 13.99L125.30 13.99Q125.58 13.78 125.91 13.56Q126.23 13.34 126.56 13.08L126.56 13.08Q127.57 12.30 127.97 11.72Q128.37 11.13 128.41 10.71L128.41 10.71Q128.46 10.27 128.32 10.07Q128.18 9.87 127.92 9.87ZM135.54 17.55L135.54 17.55Q135.68 17.65 135.90 17.65Q136.13 17.65 136.35 17.55Q136.57 17.46 136.77 17.30Q136.97 17.13 137.06 16.88L137.06 16.88Q137.16 16.62 137.06 16.14Q136.97 15.66 136.77 15.11Q136.57 14.55 136.34 13.99Q136.10 13.43 135.94 12.96L135.94 12.96Q135.80 12.61 135.70 12.30L135.70 12.30Q135.61 12.05 135.53 11.80Q135.45 11.55 135.40 11.46L135.40 11.46Q135.28 11.65 134.99 12.07Q134.70 12.49 134.36 12.95Q134.02 13.41 133.71 13.79Q133.41 14.18 133.29 14.32L133.29 14.32Q133.10 14.53 132.93 14.57Q132.75 14.60 132.63 14.50Q132.52 14.39 132.50 14.19Q132.49 13.99 132.68 13.71L132.68 13.71Q132.82 13.52 133.10 13.11Q133.38 12.70 133.66 12.27Q133.95 11.84 134.18 11.50Q134.41 11.16 134.44 11.09L134.44 11.09Q134.48 10.90 134.31 10.59Q134.13 10.29 134.25 9.89L134.25 9.89Q134.34 9.56 134.67 9.13Q135 8.70 135.45 8.34Q135.89 7.99 136.36 7.82Q136.83 7.64 137.20 7.83L137.20 7.83Q137.51 8.02 137.70 8.24Q137.88 8.46 137.84 8.70L137.84 8.70Q137.79 8.81 137.70 9L137.70 9Q137.60 9.19 137.41 9.46Q137.23 9.73 136.88 10.15L136.88 10.15Q136.95 10.69 137.07 11.13Q137.20 11.58 137.32 11.91L137.32 11.91Q137.46 12.30 137.63 12.63L137.63 12.63Q137.84 13.05 138.07 13.50Q138.30 13.95 138.49 14.38Q138.68 14.81 138.80 15.19Q138.91 15.56 138.87 15.82L138.87 15.82Q138.80 16.22 138.46 16.78Q138.12 17.34 137.61 17.87Q137.11 18.40 136.46 18.77Q135.82 19.15 135.12 19.15L135.12 19.15Q134.63 19.15 134.17 18.84Q133.71 18.54 133.39 18.13Q133.08 17.72 132.93 17.32Q132.77 16.92 132.89 16.71L132.89 16.71Q133.03 16.43 133.15 16.27Q133.27 16.10 133.50 15.89L133.50 15.89Q133.59 15.82 133.73 15.73L133.73 15.73Q133.85 15.66 134.06 15.59Q134.27 15.52 134.55 15.42L134.55 15.42Q134.79 16.15 134.98 16.56Q135.16 16.97 135.28 17.20L135.28 17.20Q135.42 17.46 135.54 17.55Z" transform="translate(51, 5.325)"></path></svg>